# xmcd
#
# Track frame offsets:
#	225
#	16095
#	32518
#	46994
#	68481
#	81216
#	94260
#	114050
#	127821
#	146039
#	160684
#	175332
#	197199
#	212674
#	229373
#	247338
#	266512
#	283198
#
# Disc length: 4039 seconds
#
# Revision: 2
# Processed by: cddbd v1.5.1PL0 Copyright (c) Steve Scherf et al.
# Submitted via: audiograbber 1.83.01
#
DISCID=f90fc412
DTITLE=Various Artist - Zärtliche Schlager Stunden Folge 1
DYEAR=1900
DGENRE=Schlager
TTITLE0=Andy Borg - Laß Es Mich Ganz Leise Sagen
TTITLE1=Ulli Martin - Ich Träume Mit Offenen Augen Von Dir
TTITLE2=Bata Illic - Michaela
TTITLE3=Christian Anders - Es Fährt Ein Zug Nach Nirgendwo
TTITLE4=Elfi Graf - Cindy, Oh Cindy
TTITLE5=Andy Borg - Ich Will Nicht Wissen, Wie Du Heißt
TTITLE6=Bernd Clüver - Das Tor Zum Garten Der Träume
TTITLE7=Mel Jersey - Schenk Mir Eine Nacht
TTITLE8=Jürgen Marcus - Ein Festival Der Liebe
TTITLE9=Caterina Valente - Ganz Paris Träumt Von Der Liebe
TTITLE10=Freddy Quinn - Junge Komm Bald Wieder
TTITLE11=Bernhard Brink - Nikita
TTITLE12=Demis Roussos - Schönes Mädchen Aus Arcadia
TTITLE13=Roland B. - Madonna Der Einsamen Herzen
TTITLE14=Waterloo - Träum Mit Mir, Baby Blue
TTITLE15=Kristina Bach - Donna Maria
TTITLE16=Roy Black - Ganz In Weiß
TTITLE17=Andy Borg - Barcarole Vom Abschied
EXTD=
EXTT0=
EXTT1=
EXTT2=
EXTT3=
EXTT4=
EXTT5=
EXTT6=
EXTT7=
EXTT8=
EXTT9=
EXTT10=
EXTT11=
EXTT12=
EXTT13=
EXTT14=
EXTT15=
EXTT16=
EXTT17=
PLAYORDER=
